<svg xmlns="http://www.w3.org/2000/svg" xmlns:xlink="http://www.w3.org/1999/xlink" id="Capa_1" x="0px" y="0px" width="512px" height="512px" viewBox="0 0 512 512" style="enable-background:new 0 0 512 512;" xml:space="preserve">
<path d="M6.4,210.2c-4,2.8-6.4,7.4-6.4,12.3L0,497c0,4,1.6,7.8,4.4,10.6C7.2,510.4,11,512,15,512h0l65-0.1c3.7,0,7.3-1.4,10-3.9  l81-73.1c37.3,19.8,84.2,30.7,133.5,30.7c50.4,0,99-11.5,136.8-32.5c39.7-22,64.7-52.8,70.4-86.6c0.2-1,0.2-1.9,0.2-2.9  c-0.5-18.9-11.1-89.5-52.2-164.1c-22.9-41.5-51.3-77-84.4-105.5c-40.5-34.8-88.1-59.3-141.6-72.6c-18-4.5-36.6,2.3-47.4,17.4  l-20.4,28.4c-10.1,14-11.9,31.1-5.1,47c6.8,15.9,20.5,26.3,37.6,28.6c10.9,1.5,22.2,1.2,33,0.9c17.9-0.5,34.8-0.9,48.2,6.2  c29.7,42,52,78.7,45.3,117.8c-10.6-9.4-24-16.1-38.7-19c-21-4.2-41.8-0.1-59.1,11.1c-22.3-26.9-58.9-43.2-98.1-43.2  c-28.4,0-55.4,8.3-76.9,23.7l-31.9-11.7C15.6,206.7,10.5,207.4,6.4,210.2L6.4,210.2z"></path>
</svg>