<?xml version="1.0" encoding="utf-8"?>
<svg xmlns="http://www.w3.org/2000/svg" xmlns:xlink="http://www.w3.org/1999/xlink" style="margin: auto; display: block; z-index: 1; position: relative; shape-rendering: auto; background: none;" width="1920" height="920" preserveAspectRatio="xMidYMid" viewBox="0 0 1920 920">
<g transform=""><linearGradient id="lg-0.09564370251025855" x1="0" x2="1" y1="0" y2="0">
  <stop stop-color="#1de0e7" offset="0"></stop>
  <stop stop-color="#00b3ef" offset="1"></stop>
</linearGradient><path d="M 1443.86 460 C 1443.86 602 1206.45 758.634 1071.45 802.634 C 936.449 846.634 669.977 845.874 586.977 730.874 C 503.976 615.874 491.736 294.874 574.736 179.874 C 657.736 64.8739 930.839 91.0588 1065.84 135.059 C 1200.84 179.059 1443.86 318 1443.86 460" fill="url(#lg-0.09564370251025855)" opacity="0.61">
  <animate attributeName="d" dur="10s" repeatCount="indefinite" keyTimes="0;0.3333333333333333;0.6666666666666666;1" calcmod="spline" keySplines="0.3 0.1 0.7 0.9;0.3 0.1 0.7 0.9;0.3 0.1 0.7 0.9" begin="-6.666666666666667s" values="M 1514 460 C 1514 607 1202 730 1062 775 C 922 820 691 838 604 719 C 517 600 467 284 553 165 C 639 46 942 40 1082 86 C 1222 132 1514 313 1514 460;M 1443 460 C 1443 602 1203 748 1068 792 C 933 836 674 843 591 728 C 508 613 488 292 571 177 C 654 62 934 81 1069 125 C 1204 169 1443 318 1443 460;M 1446 460 C 1446 602 1215 785 1080 829 C 945 873 660 853 577 738 C 494 623 501 302 584 187 C 667 72 923 116 1058 160 C 1193 204 1446 318 1446 460;M 1514 460 C 1514 607 1202 730 1062 775 C 922 820 691 838 604 719 C 517 600 467 284 553 165 C 639 46 942 40 1082 86 C 1222 132 1514 313 1514 460"></animate>
</path><path d="M 1473.98 460 C 1473.98 605.425 1223.67 799.146 1085.24 844.146 C 946.815 889.146 670.953 849.886 585.24 732.461 C 499.528 615.035 515.862 318.138 601.575 200 C 687.287 81.8622 927.299 89.4017 1065.72 134.402 C 1204.15 179.402 1473.98 314.575 1473.98 460" fill="url(#lg-0.09564370251025855)" opacity="0.61">
  <animate attributeName="d" dur="10s" repeatCount="indefinite" keyTimes="0;0.3333333333333333;0.6666666666666666;1" calcmod="spline" keySplines="0.3 0.1 0.7 0.9;0.3 0.1 0.7 0.9;0.3 0.1 0.7 0.9" begin="-6.666666666666667s" values="M 1451 460 C 1451 604 1226 811 1089 856 C 952 901 666 852 581 735 C 496 618 459 275 544 158 C 629 41 930 86 1067 130 C 1204 174 1451 316 1451 460;M 1453 460 C 1453 606 1232 823 1093 868 C 954 913 679 845 593 727 C 507 609 515 319 601 200 C 687 81 925 94 1064 139 C 1203 184 1453 314 1453 460;M 1526 460 C 1526 604 1203 740 1066 785 C 929 830 651 862 566 746 C 481 630 518 316 603 200 C 688 84 933 78 1070 123 C 1207 168 1526 316 1526 460;M 1451 460 C 1451 604 1226 811 1089 856 C 952 901 666 852 581 735 C 496 618 459 275 544 158 C 629 41 930 86 1067 130 C 1204 174 1451 316 1451 460"></animate>
</path><path d="M 1504.5 460 C 1504.5 602.287 1214.96 784.745 1079.68 828.745 C 944.39 872.745 660.255 854.205 576.255 738.918 C 492.255 623.63 511.481 310.792 595.481 195.504 C 679.481 80.2168 933.311 82.0555 1068.6 126.055 C 1203.89 170.055 1504.5 317.713 1504.5 460" fill="url(#lg-0.09564370251025855)" opacity="0.61">
  <animate attributeName="d" dur="10s" repeatCount="indefinite" keyTimes="0;0.3333333333333333;0.6666666666666666;1" calcmod="spline" keySplines="0.3 0.1 0.7 0.9;0.3 0.1 0.7 0.9;0.3 0.1 0.7 0.9" begin="-6.666666666666667s" values="M 1430 460 C 1430 607 1202 731 1063 776 C 924 821 667 854 581 736 C 495 618 499 305 585 187 C 671 69 958 -5 1097 40 C 1236 85 1430 313 1430 460;M 1516 460 C 1516 602 1221 804 1086 848 C 951 892 641 868 557 753 C 473 638 527 322 611 207 C 695 92 929 97 1064 141 C 1199 185 1516 318 1516 460;M 1476 460 C 1476 603 1200 737 1064 781 C 928 825 708 820 624 704 C 540 588 473 283 557 167 C 641 51 944 45 1080 89 C 1216 133 1476 317 1476 460;M 1430 460 C 1430 607 1202 731 1063 776 C 924 821 667 854 581 736 C 495 618 499 305 585 187 C 671 69 958 -5 1097 40 C 1236 85 1430 313 1430 460"></animate>
</path></g>
</svg>