<?xml version="1.0" encoding="utf-8"?>
<svg xml:space="preserve" style="height: 100%; width: 100%; background: none; shape-rendering: auto;" viewBox="0 0 234 64" height="223px" width="223px" y="0px" x="0px" xmlns:xlink="http://www.w3.org/1999/xlink" xmlns="http://www.w3.org/2000/svg" id="Ebene_1" version="1.1"><g class="ldl-scale" style="transform-origin: 50% 50%; transform: rotate(0deg) scale(0.85, 0.85);"><g class="ldl-ani" style="transform-origin: 117px 32px;">
<g class="ldl-layer"><g class="ldl-ani" style="transform-origin: 117px 32px; opacity: 0; animation: 2s linear 0.916667s 1 alternate forwards running dim-a993675d-4987-4be7-a25f-052e880cae26;"><path d="M83.6,28.9h-2.4v-2.6h2.4V25c0-4.2,2.1-6.1,6.8-6.1v2.6c-2.8,0-3.7,1-3.7,3.5v1.3h3.9v2.6h-3.9v16.2h-3.1V28.9z" id="f" style="fill: rgb(0, 0, 0);"></path></g></g>
<g class="ldl-layer"><g class="ldl-ani" style="transform-origin: 117px 32px; opacity: 0; animation: 2s linear 0.833333s 1 alternate forwards running dim-a993675d-4987-4be7-a25f-052e880cae26;"><path d="M93.8,21.2c0-1.2,0.9-2.1,2.1-2.1c1.1,0,2.1,0.9,2.1,2.1c0,1.2-0.9,2.1-2.1,2.1C94.7,23.3,93.8,22.4,93.8,21.2z
	 M94.3,26.4h3.1v18.8h-3.1V26.4z" id="i-1" style="fill: rgb(0, 0, 0);"></path></g></g>
<g class="ldl-layer"><g class="ldl-ani" style="transform-origin: 117px 32px; opacity: 0; animation: 2s linear 0.75s 1 alternate forwards running dim-a993675d-4987-4be7-a25f-052e880cae26;"><path d="M103.4,28.9H101v-2.6h2.4v-4.7h3.1v4.7h4.9v2.6h-4.9V40c0,1.8,0.7,2.5,2.6,2.5h2.3v2.6h-2.8
	c-3.3,0-5.2-1.4-5.2-5.1V28.9z" id="t-1" style="fill: rgb(0, 0, 0);"></path></g></g>
<g class="ldl-layer"><g class="ldl-ani" style="transform-origin: 117px 32px; opacity: 0; animation: 2s linear 0.666667s 1 alternate forwards running dim-a993675d-4987-4be7-a25f-052e880cae26;"><path d="M142.3,34.5c0-3.8-2.1-5.8-5.1-5.8c-3.2,0-5.3,2-5.3,6.1v10.3h-3.1V34.5c0-3.8-2.1-5.8-5.1-5.8c-3.2,0-5.3,2-5.3,6.1
	v10.3h-3.1V26.4h3.1v2.7c1.2-2,3.5-3,5.9-3c3.1,0,5.7,1.4,6.9,4.2c1.1-2.7,3.8-4.2,6.6-4.2c4.3,0,7.6,2.7,7.6,8v11.1h-3.1V34.5z" id="m" style="fill: rgb(0, 0, 0);"></path></g></g>
<g class="ldl-layer"><g class="ldl-ani" style="transform-origin: 117px 32px; opacity: 0; animation: 2s linear 0.583333s 1 alternate forwards running dim-a993675d-4987-4be7-a25f-052e880cae26;"><path d="M158.6,45.4c-5.3,0-9.3-3.8-9.3-9.7c0-5.9,4.2-9.7,9.5-9.7c5.3,0,9.5,3.7,9.5,9.7C168.3,41.7,164,45.4,158.6,45.4z
	 M158.6,42.7c3.3,0,6.4-2.2,6.4-7c0-4.7-3.1-7-6.3-7c-3.3,0-6.3,2.2-6.3,7C152.5,40.5,155.4,42.7,158.6,42.7z" id="o-1" style="fill: rgb(0, 0, 0);"></path></g></g>
<g class="ldl-layer"><g class="ldl-ani" style="transform-origin: 117px 32px; opacity: 0; animation: 2s linear 0.5s 1 alternate forwards running dim-a993675d-4987-4be7-a25f-052e880cae26;"><path d="M173.1,28.9h-2.4v-2.6h2.4v-4.7h3.1v4.7h4.9v2.6h-4.9V40c0,1.8,0.7,2.5,2.6,2.5h2.3v2.6h-2.8
	c-3.3,0-5.2-1.4-5.2-5.1V28.9z" id="t-2" style="fill: rgb(0, 0, 0);"></path></g></g>
<g class="ldl-layer"><g class="ldl-ani" style="transform-origin: 117px 32px; opacity: 0; animation: 2s linear 0.416667s 1 alternate forwards running dim-a993675d-4987-4be7-a25f-052e880cae26;"><path d="M184.3,21.2c0-1.2,0.9-2.1,2.1-2.1c1.1,0,2.1,0.9,2.1,2.1c0,1.2-0.9,2.1-2.1,2.1C185.2,23.3,184.3,22.4,184.3,21.2
	z M184.8,26.4h3.1v18.8h-3.1V26.4z" id="i-2" style="fill: rgb(0, 0, 0);"></path></g></g>
<g class="ldl-layer"><g class="ldl-ani" style="transform-origin: 117px 32px; opacity: 0; animation: 2s linear 0.333333s 1 alternate forwards running dim-a993675d-4987-4be7-a25f-052e880cae26;"><path d="M201.4,45.4c-5.3,0-9.3-3.8-9.3-9.7c0-5.9,4.2-9.7,9.5-9.7c5.3,0,9.5,3.7,9.5,9.7
	C211.1,41.7,206.8,45.4,201.4,45.4z M201.4,42.7c3.3,0,6.4-2.2,6.4-7c0-4.7-3.1-7-6.3-7c-3.3,0-6.3,2.2-6.3,7
	C195.3,40.5,198.2,42.7,201.4,42.7z" id="o-2" style="fill: rgb(0, 0, 0);"></path></g></g>
<g class="ldl-layer"><g class="ldl-ani" style="transform-origin: 117px 32px; opacity: 0; animation: 2s linear 0.25s 1 alternate forwards running dim-a993675d-4987-4be7-a25f-052e880cae26;"><path d="M228.9,34.5c0-3.8-2.1-5.8-5.2-5.8c-3.2,0-5.4,2-5.4,6v10.4h-3.1V26.4h3.1V29c1.2-2,3.5-3,6-3c4.3,0,7.7,2.7,7.7,8
	v11.1h-3.1V34.5z" id="n" style="fill: rgb(0, 0, 0);"></path></g></g>
<g class="ldl-layer"><g class="ldl-ani" style="transform-origin: 117px 32px;"><g id="Trenner">
	<g class="ldl-layer"><g class="ldl-ani"><g>
		<g class="ldl-layer"><g class="ldl-ani" style="transform-origin: 117px 32px; opacity: 0; animation: 2s linear 0.166667s 1 alternate forwards running dim-a993675d-4987-4be7-a25f-052e880cae26;"><rect height="60.4" width="2" y="1.8" x="69" style="fill: rgb(0, 0, 0);"></rect></g></g>
	</g></g></g>
</g></g></g>
<g class="ldl-layer"><g class="ldl-ani" style="transform-origin: 117px 32px; opacity: 0; animation: 2s linear 0.0833333s 1 alternate forwards running dim-a993675d-4987-4be7-a25f-052e880cae26;"><path d="M56.8,14.5c-3,3.4-6,6.7-9,10.1c-1.9,2.2-3.8,4.3-5.7,6.5c-0.4,0.4-0.6,0.5-1,0c-4.2-5.5-8.5-11-12.7-16.5
	c-0.1-0.1-0.2-0.4-0.4-0.4c-8.4,0-16.6,0-25,0c-0.8,0-0.9,0.2-0.9,0.9c0.1,1.7,0,3.3,0,5l22.5,0c0.6,0,1,0.3,1.3,0.7
	c5,6.3,10,12.5,15,18.8c0.6,0.7,0.8,0.7,1.4,0c2.6-3,5.2-6,7.8-8.9c0.2-0.3,0.7-0.7,0.8-0.6c0.1,0.1,0.1,0.2,0.1,0.3
	c0,6.5,0,13.1,0,19.6c1.7,0,3.4,0,5,0c0.7,0,0.8-0.1,0.8-0.8C56.8,37.7,56.8,26.1,56.8,14.5z" id="M-Symbol" style="fill: rgb(0, 0, 0);"></path></g></g>
<g class="ldl-layer"><g class="ldl-ani" style="transform-origin: 117px 32px; opacity: 0; animation: 2s linear 0s 1 alternate forwards running dim-a993675d-4987-4be7-a25f-052e880cae26;"><path d="M2,29c5.6,0,11.3,0,16.9,0c0.8,0,1.3,0.2,1.8,0.8c1.5,1.6,3.1,3.2,4.7,4.9c-0.2,0.2-0.8,0.2-1.1,0.2
	c-5.1,0-10.1,0-15.2,0c-1,0-1.3,0.3-1.3,1.2c0,4.7,0,9.4,0,14.1c-1.6,0-3.3,0-4.9,0c-0.7,0-1-0.1-0.9-0.9C2.1,42.5,2,35.7,2,29z" id="F-Symbol" style="fill: rgb(0, 0, 0);"></path></g></g>
</g></g><style id="dim-a993675d-4987-4be7-a25f-052e880cae26" data-anikit="">@keyframes dim-a993675d-4987-4be7-a25f-052e880cae26
{
  0% {
    animation-timing-function: cubic-bezier(0.9647,0.2413,-0.0705,0.7911);
    opacity: 0;
  }
  51% {
    animation-timing-function: cubic-bezier(0.9226,0.2631,-0.0308,0.7628);
    opacity: 0.9995;
  }
  100% {
    opacity: 0;
  }
}</style><!-- [ldio] generated by https://loading.io/ --></svg>